<?xml version="1.0" standalone="no"?>
<!DOCTYPE svg PUBLIC "-//W3C//DTD SVG 20010904//EN"
 "http://www.w3.org/TR/2001/REC-SVG-20010904/DTD/svg10.dtd">
<svg version="1.0" xmlns="http://www.w3.org/2000/svg"
 width="512.000000pt" height="512.000000pt" viewBox="0 0 512.000000 512.000000"
 preserveAspectRatio="xMidYMid meet">

<g transform="translate(0.000000,512.000000) scale(0.100000,-0.100000)"
fill="#000000" stroke="none">
<path d="M3290 3295 c-971 -497 -1769 -906 -1774 -908 -5 -1 51 -333 123 -737
73 -404 133 -741 134 -748 1 -7 235 143 520 334 286 190 517 347 515 348 -1 2
-157 103 -346 226 l-343 222 61 44 c202 147 2867 2108 2875 2115 5 5 7 9 5 9
-3 0 -799 -407 -1770 -905z"/>
</g>
</svg>
